<?xml version="1.0" standalone="no"?>
<!DOCTYPE svg PUBLIC "-//W3C//DTD SVG 20010904//EN"
 "http://www.w3.org/TR/2001/REC-SVG-20010904/DTD/svg10.dtd">
<svg version="1.0" xmlns="http://www.w3.org/2000/svg"
 width="310.000000pt" height="310.000000pt" viewBox="0 0 310.000000 310.000000"
 preserveAspectRatio="xMidYMid meet">
<metadata>
Created by potrace 1.11, written by Peter Selinger 2001-2013
</metadata>
<g transform="translate(0.000000,310.000000) scale(0.100000,-0.100000)"
fill="#000000" stroke="none">
<path d="M196 3084 c-36 -11 -65 -31 -107 -73 -96 -97 -89 24 -89 -1461 0
-1485 -7 -1364 89 -1461 46 -46 70 -61 116 -74 48 -14 59 -15 71 -4 7 8 59 82
116 165 128 187 1966 2811 2014 2877 l36 47 -1099 -1 c-948 0 -1105 -2 -1147
-15z m748 -521 l28 -60 176 -23 176 -24 -128 -121 -127 -121 30 -164 c16 -91
28 -166 26 -168 -2 -2 -71 31 -153 72 -82 42 -153 76 -157 76 -4 0 -75 -34
-157 -76 -82 -41 -151 -74 -153 -72 -2 2 10 77 26 168 l30 164 -127 121 -128
121 175 23 175 24 79 154 79 153 51 -94 c27 -52 63 -121 79 -153z"/>
<path d="M2950 2784 l-115 -167 7 -86 c3 -47 7 -277 7 -511 1 -328 -2 -429
-11 -440 -11 -12 -10 -12 6 0 18 14 18 -1 15 -500 l-4 -515 -87 -125 c-140
-200 -111 -179 -268 -190 -163 -11 -593 -13 -587 -2 3 4 -159 6 -360 4 -293
-2 -363 0 -357 10 19 34 -21 -18 -105 -134 l-91 -128 923 0 c1064 0 993 -6
1088 89 96 97 89 -26 89 1475 -1 1219 -2 1314 -18 1349 l-17 38 -115 -167z"/>
</g>
</svg>
